<svg width="1515" height="500" viewBox="0 0 1515 500" fill="none" xmlns="http://www.w3.org/2000/svg">
<g clip-path="url(#clip0_5141_12520)">
<path d="M1136.53 145.282V0.597441C1138.34 0.410703 1139.73 0.14927 1141.12 0.14927C1151.48 0.124372 1161.85 -0.261553 1172.18 0.323559C1178.5 0.684585 1184.83 2.19094 1191.01 3.83423C1198.59 5.85099 1203.47 11.4033 1205.04 19.4828C1206.41 26.5789 1207.68 33.8741 1207.69 41.0822C1207.87 156.972 1207.84 272.873 1207.85 388.763C1207.85 390.269 1207.69 391.776 1207.62 392.896C1207.11 393.344 1207 393.531 1206.89 393.531C1192.19 394.24 1177.47 394.552 1162.98 391.377C1149.52 388.427 1144.05 380.721 1142.95 366.354C1141.8 351.229 1142.06 335.978 1141.94 320.778C1141.78 302.639 1142.29 284.489 1141.73 266.375C1141.12 246.705 1139.32 227.148 1133.99 208.113C1128.33 187.87 1115.37 176.367 1096.45 172.16C1080.07 168.512 1063.45 168.674 1046.87 170.081C1039.22 170.728 1031.5 171.425 1024 173.056C1015.99 174.811 1010.35 180.488 1008.41 188.966C1006.6 196.896 1005.48 205.075 1004.89 213.217C1004.16 222.94 1003.98 232.75 1004.16 242.51C1004.51 261.233 1004.34 280.019 1009.91 298.183C1016.68 320.205 1030.92 333.177 1051.96 337.534C1075.19 342.352 1098.28 340.933 1121.07 334.161C1122.29 333.8 1123.57 333.563 1125.84 333.028C1125.25 337.846 1125.05 342.116 1124.17 346.224C1118.47 373.052 1101.91 388.315 1077.56 394.701C1065.63 397.838 1053.45 398.013 1041.14 396.905C1028.14 395.734 1015.43 393.481 1003.2 388.713C973.494 377.123 954.025 354.677 943.012 323.479C937.757 308.603 934.58 293.191 933.459 277.343C932.817 268.23 931.73 259.08 931.941 249.979C932.49 225.604 934.51 201.403 942.685 178.272C955.59 141.771 979.648 118.728 1015.42 109.939C1037.53 104.498 1059.8 103.253 1082.04 109.042C1103.71 114.682 1122.77 124.927 1135.61 145.469L1136.55 145.319L1136.53 145.282Z" fill="#CFEEF7"/>
<path d="M0 15.9473C2.56932 15.9473 4.01748 15.9473 5.45397 15.9473C65.9965 15.9722 126.539 15.549 187.07 16.2088C213.966 16.4951 240.395 21.1635 265.154 33.4633C296.149 48.863 314.45 74.6452 318.946 110.598C322.765 141.111 320.383 171.077 306.1 198.739C290.193 229.55 265.644 247.714 233.283 254.088C230.865 254.561 228.448 254.972 224.804 255.631C287.916 336.937 350.829 417.483 414.163 498.963C411.722 499.075 410.192 499.212 408.674 499.212C394.671 499.224 380.657 498.938 366.665 499.287C338.952 499.959 315.886 489.19 297.808 467.13C286.117 452.876 275.373 437.738 264.36 422.861C230.141 376.637 196.004 330.351 161.844 284.078C155.899 276.023 149.861 268.031 144.104 259.814C139.362 253.067 136.501 245.56 137.564 236.846C138.603 228.305 144.256 222.405 152.419 222.056C160.571 221.707 168.781 222.33 176.909 221.745C187.327 220.998 197.861 220.326 208.057 218.097C229.347 213.454 241.937 199.249 245.183 176.168C247.694 158.279 247.986 140.352 245.405 122.425C243.256 107.486 235.233 97.3401 222.48 91.2773C211.14 85.8868 199.087 83.5713 186.79 83.4966C148.857 83.2725 110.936 83.5837 73.0037 83.285C59.6082 83.1854 46.2711 81.7164 33.8333 75.4669C15.3809 66.1922 4.98682 50.4814 1.2613 29.4547C0.525543 25.2718 0.455471 20.9644 0 15.9473Z" fill="#CFEEF7"/>
<path d="M657.759 110.113C659.966 110.113 661.531 110.113 663.096 110.113C699.568 110.138 736.041 109.764 772.514 110.325C794.096 110.648 815.456 113.736 835.964 121.604C867.147 133.567 886.51 156.548 893.54 191.207C896.378 205.237 897.219 219.417 897.208 233.708C897.173 285.136 897.196 336.564 897.196 387.991C897.196 389.672 897.196 391.352 897.196 393.008C896.238 393.382 895.713 393.767 895.175 393.78C882.656 393.942 870.113 394.34 857.687 392.025C846.557 389.946 841.488 383.97 840.706 371.919C840.215 364.375 839.865 356.831 839.41 348.664C838.405 349.623 837.564 350.158 837.062 350.942C821.938 374.882 800.262 388.277 774.231 393.543C741.612 400.154 709.53 397.577 678.722 383.621C662.208 376.139 648.661 364.624 639.645 347.768C634.004 337.223 631.026 325.795 630.559 313.645C629.998 298.967 630.757 284.501 635.943 270.633C642.927 251.946 656.1 240.232 673.21 232.986C687.82 226.799 703.107 223.438 718.745 223.002C746.727 222.218 774.721 222.193 802.703 221.882C803.556 221.882 804.408 222.106 805.67 222.293C805.67 224.932 805.973 227.534 805.623 230.036C802.82 249.618 791.538 260.86 773.962 265.13C766.92 266.836 759.597 267.433 752.356 267.881C742.184 268.504 731.942 268.081 721.793 268.902C708.876 269.96 705.069 274.828 704.1 287.302C703.492 295.008 703.247 302.851 703.866 310.545C704.59 319.508 709.6 325.907 717.051 330.115C726.149 335.256 736.041 337.174 746.12 337.485C759.819 337.908 773.553 337.759 787.252 337.46C792.753 337.335 798.312 336.626 803.696 335.393C816.064 332.567 823.853 326.891 824.729 308.179C825.921 282.771 825.664 257.287 825.815 231.829C825.862 223.164 825.956 214.375 824.788 205.835C822.802 191.319 814.978 181.26 801.827 176.206C792.975 172.807 783.784 171.226 774.441 171.089C759.13 170.853 743.807 171.114 728.485 170.952C714.202 170.803 699.93 170.429 685.647 170.031C682.903 169.956 680.135 169.446 677.449 168.823C666.249 166.259 661.437 160.881 659.452 148.506C658.669 143.626 658.016 138.684 657.84 133.754C657.572 126.172 657.77 118.566 657.77 110.076L657.759 110.113Z" fill="#CFEEF7"/>
<path d="M590.465 394.776C588.223 394.776 586.647 394.776 585.058 394.776C550.629 394.776 516.2 395.125 481.772 394.651C458.426 394.34 435.302 391.726 413.264 382.489C377.854 367.637 356.447 340 346.894 301.195C341.51 279.31 340.798 257.013 341.907 234.68C342.806 216.379 346.135 198.428 352.745 181.31C365.662 147.834 388.844 126.297 420.727 114.943C434.589 110.013 448.861 107.051 463.483 106.353C473.374 105.88 483.313 105.108 493.17 105.619C522.098 107.125 549.333 114.57 572.41 134.414C593.432 152.49 605.157 176.33 609.899 204.391C612.211 218.097 611.721 231.916 611.522 245.709C611.476 249.394 610.81 253.104 610.039 256.715C607.61 268.031 602.378 272.836 591.552 273.546C583.703 274.056 575.844 274.43 567.984 274.455C525.24 274.542 482.496 274.492 439.751 274.492H433.667C433.854 271.778 433.924 269.425 434.169 267.085C436.528 244.738 451.302 232.215 470.186 228.617C476.306 227.447 482.601 226.886 488.837 226.787C504.008 226.525 519.179 226.7 534.349 226.7C536.078 226.7 537.818 226.7 539.733 226.7C541.333 221.097 540.2 215.943 539.114 210.889C533.438 184.497 515.5 168.686 492.434 165.86C476.061 163.856 459.313 165.188 442.73 165.475C438.163 165.549 433.538 166.869 429.1 168.238C423.121 170.093 418.718 174.45 417.305 180.887C415.635 188.53 414.117 196.386 413.965 204.179C413.521 227.633 413.766 251.1 413.755 274.554C413.755 301.731 427.442 321.649 451.781 330.04C461.451 333.377 471.436 334.485 481.48 334.584C506.425 334.833 531.371 334.646 556.317 334.87C561.362 334.92 566.454 335.767 571.441 336.738C580.398 338.493 585.922 344.419 587.884 353.831C590.641 367.077 590.839 380.509 590.454 394.751L590.465 394.776Z" fill="#CFEEF7"/>
<path d="M1493.39 394.776C1491.67 394.776 1490.08 394.776 1488.5 394.776C1454.07 394.776 1419.63 395.099 1385.21 394.664C1362.6 394.377 1340.17 391.9 1318.73 383.335C1281.09 368.296 1258.83 339.178 1249.58 298.021C1244.85 276.982 1244.21 255.581 1245.36 234.181C1246.48 213.503 1250.49 193.36 1259.03 174.488C1273.66 142.145 1298.21 122.799 1330.02 113.001C1342.49 109.167 1355.27 107.175 1368.23 106.154C1390.62 104.399 1412.78 105.295 1434.44 112.03C1470.18 123.16 1495.72 146.303 1508.42 184.223C1512.61 196.709 1515.04 209.656 1514.99 222.915C1514.95 234.206 1514.77 245.597 1513.31 256.739C1511.84 267.919 1505.65 272.886 1494.94 273.546C1486.8 274.044 1478.64 274.43 1470.49 274.442C1428.04 274.529 1385.59 274.479 1343.12 274.479H1337.83C1336.18 269.798 1337.6 265.578 1338.52 261.495C1342.48 243.966 1353.56 233.858 1369.46 229.65C1376.17 227.87 1383.24 227.011 1390.17 226.824C1406.06 226.413 1421.97 226.687 1437.87 226.687C1439.6 226.687 1441.33 226.687 1443.22 226.687C1444.81 221.197 1443.65 216.167 1442.65 211.275C1437.55 186.489 1419.25 168.387 1395.4 165.574C1376.84 163.383 1358.14 163.37 1339.61 166.184C1323.38 168.661 1318.86 177.961 1318.34 192.638C1317.33 221.794 1316.78 251.025 1317.51 280.181C1318.1 303.449 1331.69 321.898 1355.26 330.04C1364.93 333.376 1374.91 334.484 1384.96 334.584C1410.63 334.845 1436.31 334.659 1461.99 334.933C1466.74 334.982 1471.54 335.991 1476.2 337.086C1486.15 339.402 1490.9 347.17 1491.98 357.042C1493.28 368.869 1493.39 380.833 1494 392.747C1494.03 393.17 1493.76 393.605 1493.41 394.763L1493.39 394.776Z" fill="#CFEEF7"/>
<path d="M46.5039 399.556V393.132C46.5039 330.214 46.5039 267.284 46.5039 204.366C46.5039 183.451 49.3535 163.184 59.1286 144.697C69.511 125.027 85.4408 113.599 106.357 110.15C110.468 109.465 114.661 109.304 119.262 108.855C119.414 111.096 119.601 112.59 119.601 114.084C119.601 188.356 119.741 262.615 119.426 336.887C119.379 347.805 117.627 358.785 116.016 369.616C114.054 382.8 106.346 391.402 94.6903 395.535C88.8276 397.614 82.5561 398.996 76.3897 399.407C66.7198 400.042 57.003 399.569 46.4922 399.569L46.5039 399.556Z" fill="#CFEEF7"/>
</g>
<defs>
<clipPath id="clip0_5141_12520">
<rect width="1515" height="499.324" fill="white"/>
</clipPath>
</defs>
</svg>
