<svg aria-hidden="true" class="svg-404" width="470" height="209" viewBox="0 0 470 209" fill="none" xmlns="http://www.w3.org/2000/svg"> <path d="M146.232 99.4389C146.232 117.252 141.816 130.944 132.982 140.513C124.149 150.082 111.488 154.867 95 154.867C78.5115 154.867 65.8507 150.082 57.0176 140.513C48.1845 130.944 43.7679 117.203 43.7679 99.2917C43.7679 81.3801 48.1845 67.7133 57.0176 58.2913C65.8998 48.8202 78.6097 44.0847 95.1472 44.0847C111.685 44.0847 124.321 48.8447 133.056 58.3649C141.84 67.885 146.232 81.5764 146.232 99.4389ZM67.6909 99.4389C67.6909 111.462 69.9728 120.516 74.5366 126.601C79.1004 132.686 85.9215 135.728 95 135.728C113.206 135.728 122.309 123.632 122.309 99.4389C122.309 75.1969 113.255 63.0759 95.1472 63.0759C86.0687 63.0759 79.2231 66.1429 74.6102 72.277C69.9974 78.3621 67.6909 87.416 67.6909 99.4389Z" fill="#009FC6"/> <path d="M21.7666 18.3157C22.3454 18.3157 22.8672 18.4068 23.332 18.5891C23.7969 18.7668 24.166 19.0334 24.4395 19.3889C24.7129 19.7444 24.8496 20.1842 24.8496 20.7083C24.8496 21.1139 24.7653 21.467 24.5967 21.7678C24.4326 22.0686 24.2093 22.3329 23.9268 22.5608C23.6442 22.7841 23.3275 22.9823 22.9766 23.1555C23.3685 23.3469 23.7285 23.568 24.0566 23.8186C24.3893 24.0647 24.6559 24.3541 24.8564 24.6868C25.0615 25.0194 25.1641 25.4091 25.1641 25.8557C25.1641 26.4163 25.0205 26.9016 24.7334 27.3118C24.4508 27.7174 24.0566 28.0318 23.5508 28.2551C23.0449 28.4739 22.4548 28.5833 21.7803 28.5833C21.0557 28.5833 20.4382 28.4762 19.9277 28.262C19.4173 28.0478 19.0299 27.7424 18.7656 27.3459C18.5013 26.9449 18.3691 26.4664 18.3691 25.9104C18.3691 25.4501 18.4603 25.0514 18.6426 24.7141C18.8249 24.3769 19.0687 24.0852 19.374 23.8391C19.6839 23.593 20.0234 23.3857 20.3926 23.217C20.0781 23.0302 19.791 22.8206 19.5312 22.5881C19.2715 22.3512 19.0641 22.08 18.9092 21.7747C18.7588 21.4648 18.6836 21.107 18.6836 20.7014C18.6836 20.1819 18.8226 19.7467 19.1006 19.3958C19.3786 19.0403 19.75 18.7714 20.2148 18.5891C20.6842 18.4068 21.2015 18.3157 21.7666 18.3157ZM19.9004 25.8489C19.9004 26.2864 20.0553 26.6464 20.3652 26.929C20.6751 27.2115 21.1377 27.3528 21.7529 27.3528C22.3636 27.3528 22.8285 27.2138 23.1475 26.9358C23.4665 26.6578 23.626 26.2909 23.626 25.8352C23.626 25.5435 23.5439 25.2861 23.3799 25.0627C23.2204 24.8394 23.0039 24.6412 22.7305 24.468C22.4616 24.2903 22.1631 24.1262 21.835 23.9758L21.6162 23.887C21.2607 24.0374 20.9554 24.2083 20.7002 24.3997C20.445 24.5865 20.2467 24.7984 20.1055 25.0354C19.9688 25.2724 19.9004 25.5435 19.9004 25.8489ZM21.7529 19.553C21.3109 19.553 20.9463 19.6624 20.6592 19.8811C20.3766 20.0953 20.2354 20.4052 20.2354 20.8108C20.2354 21.0979 20.3037 21.344 20.4404 21.5491C20.5817 21.7542 20.7708 21.9319 21.0078 22.0823C21.2448 22.2281 21.5068 22.3648 21.7939 22.4924C22.0719 22.3694 22.3226 22.2349 22.5459 22.0891C22.7738 21.9387 22.9538 21.761 23.0859 21.5559C23.2227 21.3463 23.291 21.0956 23.291 20.804C23.291 20.4029 23.1475 20.0953 22.8604 19.8811C22.5778 19.6624 22.2087 19.553 21.7529 19.553Z" fill="#009FC6"/> <path d="M133.021 23.4358C133.021 24.206 132.923 24.9078 132.727 25.5413C132.535 26.1702 132.246 26.7125 131.858 27.1682C131.471 27.6194 130.986 27.968 130.402 28.2141C129.819 28.4602 129.135 28.5833 128.352 28.5833C127.554 28.5833 126.861 28.4602 126.273 28.2141C125.69 27.968 125.205 27.6171 124.817 27.1614C124.435 26.7056 124.147 26.1611 123.956 25.5276C123.765 24.8941 123.669 24.1923 123.669 23.4221C123.669 22.3922 123.838 21.4944 124.175 20.7288C124.517 19.9586 125.034 19.3616 125.727 18.9377C126.424 18.5094 127.303 18.2952 128.365 18.2952C129.404 18.2952 130.268 18.5071 130.956 18.9309C131.644 19.3547 132.159 19.9517 132.501 20.7219C132.847 21.4875 133.021 22.3922 133.021 23.4358ZM125.392 23.4358C125.392 24.206 125.496 24.8736 125.706 25.4387C125.916 25.9993 126.237 26.4322 126.67 26.7375C127.107 27.0383 127.668 27.1887 128.352 27.1887C129.04 27.1887 129.6 27.0383 130.033 26.7375C130.466 26.4322 130.785 25.9993 130.99 25.4387C131.195 24.8736 131.298 24.206 131.298 23.4358C131.298 22.2646 131.063 21.3486 130.594 20.6877C130.129 20.0224 129.386 19.6897 128.365 19.6897C127.682 19.6897 127.119 19.8401 126.677 20.1409C126.239 20.4417 125.916 20.8723 125.706 21.4329C125.496 21.9889 125.392 22.6565 125.392 23.4358ZM136.678 24.5774L134.148 20.8792H135.98L137.71 23.5383L139.446 20.8792H141.271L138.729 24.5774L141.401 28.4465H139.562L137.71 25.6096L135.851 28.4465H134.025L136.678 24.5774ZM141.572 20.8792H143.322L144.874 25.1995C144.942 25.3954 145.004 25.5891 145.059 25.7805C145.118 25.9674 145.168 26.1519 145.209 26.3342C145.255 26.5165 145.291 26.6988 145.318 26.8811H145.359C145.405 26.6441 145.469 26.3798 145.551 26.0881C145.637 25.7919 145.733 25.4957 145.838 25.1995L147.328 20.8792H149.058L145.811 29.4856C145.624 29.9778 145.394 30.3971 145.12 30.7434C144.851 31.0943 144.532 31.3586 144.163 31.5364C143.794 31.7187 143.372 31.8098 142.898 31.8098C142.671 31.8098 142.472 31.7961 142.304 31.7688C142.135 31.746 141.992 31.7209 141.873 31.6936V30.4084C141.969 30.4312 142.09 30.4517 142.235 30.47C142.381 30.4882 142.532 30.4973 142.687 30.4973C142.974 30.4973 143.222 30.4403 143.432 30.3264C143.641 30.2125 143.819 30.0507 143.965 29.8411C144.111 29.636 144.231 29.4013 144.327 29.137L144.594 28.426L141.572 20.8792ZM152.366 31.8098C151.341 31.8098 150.555 31.6252 150.008 31.2561C149.461 30.887 149.188 30.3697 149.188 29.7043C149.188 29.2395 149.333 28.8453 149.625 28.5217C149.917 28.2027 150.334 27.9817 150.876 27.8586C150.671 27.7675 150.493 27.6262 150.343 27.4348C150.197 27.2389 150.124 27.0224 150.124 26.7854C150.124 26.5028 150.204 26.2613 150.363 26.0608C150.523 25.8603 150.762 25.6666 151.081 25.4797C150.685 25.3111 150.366 25.0377 150.124 24.6594C149.887 24.2766 149.769 23.8277 149.769 23.3127C149.769 22.7659 149.885 22.301 150.117 21.9182C150.35 21.5308 150.689 21.2369 151.136 21.0364C151.582 20.8313 152.122 20.7288 152.756 20.7288C152.893 20.7288 153.041 20.7379 153.2 20.7561C153.364 20.7698 153.515 20.788 153.651 20.8108C153.793 20.829 153.9 20.8495 153.973 20.8723H156.591V21.7678L155.306 22.0071C155.429 22.1803 155.527 22.3785 155.6 22.6018C155.673 22.8206 155.709 23.0598 155.709 23.3196C155.709 24.1034 155.438 24.7209 154.896 25.1721C154.358 25.6187 153.615 25.842 152.667 25.842C152.439 25.8329 152.218 25.8147 152.004 25.7874C151.84 25.8876 151.715 25.9993 151.628 26.1223C151.541 26.2408 151.498 26.3752 151.498 26.5256C151.498 26.6487 151.541 26.7489 151.628 26.8264C151.715 26.8993 151.842 26.954 152.011 26.9905C152.184 27.0269 152.394 27.0452 152.64 27.0452H153.945C154.775 27.0452 155.408 27.2206 155.846 27.5715C156.283 27.9224 156.502 28.4374 156.502 29.1165C156.502 29.9778 156.146 30.6409 155.436 31.1057C154.725 31.5751 153.701 31.8098 152.366 31.8098ZM152.428 30.6819C152.988 30.6819 153.46 30.6272 153.843 30.5178C154.226 30.4084 154.515 30.2512 154.711 30.0461C154.907 29.8456 155.005 29.6064 155.005 29.3284C155.005 29.0823 154.943 28.8931 154.82 28.761C154.697 28.6288 154.513 28.5377 154.267 28.4875C154.021 28.4374 153.715 28.4124 153.351 28.4124H152.161C151.865 28.4124 151.603 28.4579 151.375 28.5491C151.147 28.6448 150.969 28.7815 150.842 28.9592C150.719 29.137 150.657 29.3512 150.657 29.6018C150.657 29.9482 150.81 30.2148 151.115 30.4016C151.425 30.5885 151.863 30.6819 152.428 30.6819ZM152.742 24.7893C153.212 24.7893 153.56 24.6617 153.788 24.4065C154.016 24.1467 154.13 23.7821 154.13 23.3127C154.13 22.8023 154.011 22.4195 153.774 22.1643C153.542 21.9091 153.196 21.7815 152.735 21.7815C152.284 21.7815 151.94 21.9114 151.703 22.1711C151.471 22.4309 151.354 22.816 151.354 23.3264C151.354 23.7867 151.471 24.1467 151.703 24.4065C151.94 24.6617 152.286 24.7893 152.742 24.7893ZM160.986 20.7356C161.661 20.7356 162.24 20.8746 162.723 21.1526C163.206 21.4306 163.577 21.8248 163.837 22.3352C164.097 22.8456 164.227 23.4563 164.227 24.1672V25.0286H159.175C159.193 25.7623 159.389 26.3274 159.763 26.7239C160.141 27.1204 160.67 27.3186 161.349 27.3186C161.832 27.3186 162.265 27.273 162.647 27.1819C163.035 27.0862 163.434 26.9472 163.844 26.7649V28.0706C163.465 28.2483 163.08 28.3782 162.688 28.4602C162.297 28.5422 161.827 28.5833 161.28 28.5833C160.537 28.5833 159.883 28.4397 159.318 28.1526C158.758 27.8609 158.318 27.428 157.999 26.8538C157.685 26.2795 157.527 25.5663 157.527 24.7141C157.527 23.8665 157.671 23.1464 157.958 22.554C158.245 21.9615 158.648 21.5103 159.168 21.2004C159.688 20.8905 160.294 20.7356 160.986 20.7356ZM160.986 21.9456C160.48 21.9456 160.07 22.1096 159.756 22.4377C159.446 22.7659 159.264 23.2467 159.209 23.8801H162.654C162.65 23.5019 162.586 23.1669 162.463 22.8752C162.344 22.5836 162.162 22.3557 161.916 22.1917C161.674 22.0276 161.365 21.9456 160.986 21.9456ZM169.982 20.7356C170.835 20.7356 171.498 20.9566 171.972 21.3987C172.45 21.8362 172.689 22.5403 172.689 23.511V28.4465H171.083V23.8118C171.083 23.2239 170.962 22.7841 170.721 22.4924C170.479 22.1962 170.105 22.0481 169.6 22.0481C168.866 22.0481 168.355 22.2737 168.068 22.7249C167.786 23.176 167.645 23.83 167.645 24.6868V28.4465H166.038V20.8792H167.289L167.515 21.9045H167.604C167.768 21.6402 167.97 21.4237 168.212 21.2551C168.458 21.0819 168.731 20.9521 169.032 20.8655C169.338 20.7789 169.654 20.7356 169.982 20.7356Z" fill="#009FC6"/> <rect x="0.5" y="0.5" width="188" height="208" rx="20.5" stroke="#009FC6"/> <path d="M278.882 154.395L252.971 69.9649H252.309C253.241 87.1404 253.707 98.5989 253.707 104.34V154.395H233.318V46.7779H264.381L289.85 129.073H290.291L317.306 46.7779H348.369V154.395H327.096V103.457C327.096 101.053 327.121 98.2799 327.17 95.1393C327.268 91.9986 327.611 83.6562 328.2 70.1121H327.538L299.787 154.395H278.882ZM445.386 72.0995V83.509L432.505 86.8214C434.86 90.5019 436.038 94.624 436.038 99.1878C436.038 108.021 432.946 114.916 426.763 119.872C420.629 124.779 412.09 127.233 401.147 127.233L397.098 127.012L393.786 126.644C391.48 128.411 390.326 130.374 390.326 132.533C390.326 135.772 394.449 137.391 402.693 137.391H416.679C425.708 137.391 432.578 139.329 437.289 143.206C442.049 147.083 444.429 152.775 444.429 160.284C444.429 169.902 440.405 177.361 432.357 182.661C424.358 187.961 412.851 190.611 397.835 190.611C386.352 190.611 377.567 188.599 371.482 184.575C365.446 180.6 362.428 175.005 362.428 167.792C362.428 162.835 363.974 158.689 367.066 155.352C370.157 152.015 374.697 149.635 380.684 148.212C378.377 147.23 376.365 145.635 374.648 143.427C372.93 141.17 372.071 138.79 372.071 136.287C372.071 133.146 372.979 130.545 374.795 128.484C376.611 126.374 379.236 124.313 382.671 122.301C378.353 120.436 374.918 117.443 372.366 113.321C369.863 109.199 368.612 104.34 368.612 98.7461C368.612 89.7658 371.531 82.822 377.371 77.9147C383.211 73.0074 391.553 70.5537 402.398 70.5537C404.705 70.5537 407.428 70.7746 410.569 71.2162C413.759 71.6088 415.795 71.9033 416.679 72.0995H445.386ZM381.861 166.025C381.861 169.117 383.334 171.546 386.278 173.312C389.271 175.079 393.443 175.962 398.791 175.962C406.839 175.962 413.145 174.858 417.709 172.65C422.273 170.442 424.555 167.424 424.555 163.596C424.555 160.504 423.205 158.37 420.506 157.192C417.807 156.014 413.636 155.425 407.993 155.425H396.362C392.24 155.425 388.781 156.382 385.983 158.296C383.235 160.259 381.861 162.835 381.861 166.025ZM390.032 99.0406C390.032 103.506 391.038 107.039 393.05 109.64C395.111 112.241 398.227 113.542 402.398 113.542C406.619 113.542 409.71 112.241 411.673 109.64C413.636 107.039 414.617 103.506 414.617 99.0406C414.617 89.1278 410.544 84.1715 402.398 84.1715C394.154 84.1715 390.032 89.1278 390.032 99.0406Z" fill="#009FC6"/> <path d="M216.841 29.4465H215.228V23.0139C215.228 22.7997 215.23 22.5855 215.234 22.3713C215.239 22.1571 215.243 21.9475 215.248 21.7424C215.257 21.5374 215.269 21.3414 215.282 21.1545C215.187 21.2594 215.068 21.3733 214.927 21.4963C214.79 21.6194 214.644 21.747 214.489 21.8792L213.341 22.7952L212.534 21.7766L215.501 19.4524H216.841V29.4465ZM226.896 29.4465H220.129V28.2366L222.72 25.6116C223.221 25.1012 223.633 24.6614 223.957 24.2922C224.281 23.9185 224.52 23.5653 224.675 23.2327C224.834 22.9 224.914 22.5377 224.914 22.1458C224.914 21.6627 224.775 21.2981 224.497 21.052C224.219 20.8014 223.852 20.676 223.396 20.676C222.964 20.676 222.562 20.7626 222.193 20.9358C221.829 21.1044 221.451 21.3459 221.059 21.6604L220.177 20.6008C220.455 20.3639 220.751 20.1474 221.065 19.9514C221.384 19.7555 221.74 19.6005 222.132 19.4866C222.524 19.3681 222.97 19.3088 223.472 19.3088C224.105 19.3088 224.652 19.4228 225.112 19.6506C225.573 19.8739 225.926 20.1861 226.172 20.5872C226.423 20.9882 226.548 21.4553 226.548 21.9885C226.548 22.5263 226.441 23.023 226.227 23.4788C226.012 23.9345 225.707 24.3857 225.311 24.8323C224.914 25.2743 224.442 25.7551 223.896 26.2747L222.166 27.9631V28.0383H226.896V29.4465Z" fill="#009FC6"/> <path d="M380.97 29.4465L378.092 21.0999H378.03C378.044 21.2867 378.06 21.5419 378.078 21.8655C378.096 22.189 378.112 22.5354 378.126 22.9045C378.14 23.2737 378.146 23.6269 378.146 23.9641V29.4465H376.656V19.4524H378.96L381.729 27.4299H381.77L384.634 19.4524H386.931V29.4465H385.365V23.8821C385.365 23.5767 385.37 23.2463 385.379 22.8909C385.393 22.5354 385.406 22.1982 385.42 21.8792C385.438 21.5601 385.452 21.3049 385.461 21.1135H385.406L382.419 29.4465H380.97ZM392.365 21.7356C393.322 21.7356 394.045 21.9475 394.532 22.3713C395.024 22.7952 395.271 23.456 395.271 24.3538V29.4465H394.129L393.821 28.3733H393.767C393.552 28.6467 393.331 28.8723 393.104 29.05C392.876 29.2278 392.611 29.3599 392.311 29.4465C392.014 29.5377 391.652 29.5833 391.224 29.5833C390.772 29.5833 390.369 29.5012 390.014 29.3372C389.658 29.1685 389.378 28.9133 389.173 28.5715C388.968 28.2297 388.865 27.7968 388.865 27.2727C388.865 26.4934 389.155 25.9078 389.733 25.5159C390.317 25.1239 391.196 24.9075 392.372 24.8665L393.685 24.8186V24.4221C393.685 23.898 393.562 23.5243 393.315 23.301C393.074 23.0777 392.732 22.9661 392.29 22.9661C391.912 22.9661 391.545 23.0208 391.189 23.1301C390.834 23.2395 390.488 23.3739 390.15 23.5334L389.631 22.3987C390 22.2027 390.419 22.0432 390.889 21.9202C391.363 21.7971 391.855 21.7356 392.365 21.7356ZM393.678 25.8303L392.7 25.8645C391.898 25.8918 391.335 26.0286 391.012 26.2747C390.688 26.5208 390.526 26.858 390.526 27.2864C390.526 27.6601 390.638 27.9335 390.861 28.1067C391.085 28.2753 391.379 28.3596 391.743 28.3596C392.299 28.3596 392.759 28.2024 393.124 27.8879C393.493 27.5689 393.678 27.1018 393.678 26.4866V25.8303ZM399.68 32.8098C398.654 32.8098 397.868 32.6252 397.321 32.2561C396.774 31.887 396.501 31.3697 396.501 30.7043C396.501 30.2395 396.647 29.8453 396.938 29.5217C397.23 29.2027 397.647 28.9817 398.189 28.8586C397.984 28.7675 397.807 28.6262 397.656 28.4348C397.51 28.2389 397.438 28.0224 397.438 27.7854C397.438 27.5028 397.517 27.2613 397.677 27.0608C397.836 26.8603 398.076 26.6666 398.395 26.4797C397.998 26.3111 397.679 26.0377 397.438 25.6594C397.201 25.2766 397.082 24.8277 397.082 24.3127C397.082 23.7659 397.198 23.301 397.431 22.9182C397.663 22.5308 398.003 22.2369 398.449 22.0364C398.896 21.8313 399.436 21.7288 400.069 21.7288C400.206 21.7288 400.354 21.7379 400.514 21.7561C400.678 21.7698 400.828 21.788 400.965 21.8108C401.106 21.829 401.213 21.8495 401.286 21.8723H403.904V22.7678L402.619 23.0071C402.742 23.1803 402.84 23.3785 402.913 23.6018C402.986 23.8206 403.022 24.0598 403.022 24.3196C403.022 25.1034 402.751 25.7209 402.209 26.1721C401.671 26.6187 400.928 26.842 399.98 26.842C399.753 26.8329 399.532 26.8147 399.317 26.7874C399.153 26.8876 399.028 26.9993 398.941 27.1223C398.855 27.2408 398.812 27.3752 398.812 27.5256C398.812 27.6487 398.855 27.7489 398.941 27.8264C399.028 27.8993 399.156 27.954 399.324 27.9905C399.497 28.0269 399.707 28.0452 399.953 28.0452H401.259C402.088 28.0452 402.722 28.2206 403.159 28.5715C403.597 28.9224 403.815 29.4374 403.815 30.1165C403.815 30.9778 403.46 31.6409 402.749 32.1057C402.038 32.5751 401.015 32.8098 399.68 32.8098ZM399.741 31.6819C400.302 31.6819 400.773 31.6272 401.156 31.5178C401.539 31.4084 401.828 31.2512 402.024 31.0461C402.22 30.8456 402.318 30.6064 402.318 30.3284C402.318 30.0823 402.257 29.8931 402.134 29.761C402.011 29.6288 401.826 29.5377 401.58 29.4875C401.334 29.4374 401.029 29.4124 400.664 29.4124H399.475C399.178 29.4124 398.916 29.4579 398.688 29.5491C398.461 29.6448 398.283 29.7815 398.155 29.9592C398.032 30.137 397.971 30.3512 397.971 30.6018C397.971 30.9482 398.123 31.2148 398.429 31.4016C398.739 31.5885 399.176 31.6819 399.741 31.6819ZM400.056 25.7893C400.525 25.7893 400.874 25.6617 401.102 25.4065C401.329 25.1467 401.443 24.7821 401.443 24.3127C401.443 23.8023 401.325 23.4195 401.088 23.1643C400.855 22.9091 400.509 22.7815 400.049 22.7815C399.598 22.7815 399.254 22.9114 399.017 23.1711C398.784 23.4309 398.668 23.816 398.668 24.3264C398.668 24.7867 398.784 25.1467 399.017 25.4065C399.254 25.6617 399.6 25.7893 400.056 25.7893ZM409.229 21.7356C410.082 21.7356 410.745 21.9566 411.219 22.3987C411.697 22.8362 411.937 23.5403 411.937 24.511V29.4465H410.33V24.8118C410.33 24.2239 410.209 23.7841 409.968 23.4924C409.726 23.1962 409.353 23.0481 408.847 23.0481C408.113 23.0481 407.603 23.2737 407.315 23.7249C407.033 24.176 406.892 24.83 406.892 25.6868V29.4465H405.285V21.8792H406.536L406.762 22.9045H406.851C407.015 22.6402 407.217 22.4237 407.459 22.2551C407.705 22.0819 407.979 21.9521 408.279 21.8655C408.585 21.7789 408.901 21.7356 409.229 21.7356ZM417.2 21.7356C417.875 21.7356 418.453 21.8746 418.937 22.1526C419.42 22.4306 419.791 22.8248 420.051 23.3352C420.311 23.8456 420.44 24.4563 420.44 25.1672V26.0286H415.389C415.407 26.7623 415.603 27.3274 415.977 27.7239C416.355 28.1204 416.883 28.3186 417.562 28.3186C418.046 28.3186 418.479 28.273 418.861 28.1819C419.249 28.0862 419.647 27.9472 420.058 27.7649V29.0706C419.679 29.2483 419.294 29.3782 418.902 29.4602C418.51 29.5422 418.041 29.5833 417.494 29.5833C416.751 29.5833 416.097 29.4397 415.532 29.1526C414.972 28.8609 414.532 28.428 414.213 27.8538C413.898 27.2795 413.741 26.5663 413.741 25.7141C413.741 24.8665 413.885 24.1464 414.172 23.554C414.459 22.9615 414.862 22.5103 415.382 22.2004C415.901 21.8905 416.507 21.7356 417.2 21.7356ZM417.2 22.9456C416.694 22.9456 416.284 23.1096 415.97 23.4377C415.66 23.7659 415.478 24.2467 415.423 24.8801H418.868C418.864 24.5019 418.8 24.1669 418.677 23.8752C418.558 23.5836 418.376 23.3557 418.13 23.1917C417.888 23.0276 417.578 22.9456 417.2 22.9456ZM427.338 27.2864C427.338 27.7831 427.217 28.2024 426.976 28.5442C426.734 28.886 426.381 29.1458 425.916 29.3235C425.456 29.4967 424.891 29.5833 424.221 29.5833C423.692 29.5833 423.236 29.5445 422.854 29.467C422.475 29.3941 422.118 29.2802 421.78 29.1252V27.7375C422.14 27.9062 422.544 28.052 422.99 28.175C423.441 28.2981 423.868 28.3596 424.269 28.3596C424.797 28.3596 425.178 28.2776 425.41 28.1135C425.643 27.9449 425.759 27.7216 425.759 27.4436C425.759 27.2795 425.711 27.1337 425.615 27.0061C425.524 26.8739 425.351 26.7395 425.096 26.6028C424.845 26.4615 424.476 26.2929 423.988 26.0969C423.51 25.9055 423.106 25.7141 422.778 25.5227C422.45 25.3313 422.202 25.1012 422.033 24.8323C421.865 24.5588 421.78 24.2102 421.78 23.7864C421.78 23.1165 422.045 22.6083 422.573 22.262C423.106 21.9111 423.811 21.7356 424.686 21.7356C425.15 21.7356 425.588 21.7834 425.998 21.8792C426.413 21.9703 426.818 22.1047 427.215 22.2825L426.709 23.4924C426.367 23.342 426.023 23.219 425.677 23.1233C425.335 23.023 424.986 22.9729 424.631 22.9729C424.216 22.9729 423.899 23.0367 423.681 23.1643C423.466 23.2919 423.359 23.4742 423.359 23.7112C423.359 23.8889 423.412 24.0393 423.517 24.1624C423.621 24.2854 423.801 24.4084 424.057 24.5315C424.316 24.6545 424.676 24.8072 425.137 24.9895C425.588 25.1627 425.978 25.345 426.306 25.5364C426.638 25.7232 426.894 25.9534 427.071 26.2268C427.249 26.5002 427.338 26.8534 427.338 27.2864ZM430.681 21.8792V29.4465H429.074V21.8792H430.681ZM429.888 18.9807C430.134 18.9807 430.346 19.0468 430.523 19.179C430.706 19.3111 430.797 19.539 430.797 19.8625C430.797 20.1816 430.706 20.4094 430.523 20.5461C430.346 20.6783 430.134 20.7444 429.888 20.7444C429.632 20.7444 429.416 20.6783 429.238 20.5461C429.065 20.4094 428.979 20.1816 428.979 19.8625C428.979 19.539 429.065 19.3111 429.238 19.179C429.416 19.0468 429.632 18.9807 429.888 18.9807ZM439.581 21.8792V29.4465H438.316L438.098 28.428H438.009C437.849 28.6877 437.646 28.9042 437.4 29.0774C437.154 29.246 436.881 29.3713 436.58 29.4534C436.279 29.54 435.963 29.5833 435.63 29.5833C435.06 29.5833 434.573 29.4875 434.167 29.2961C433.766 29.1002 433.458 28.7994 433.244 28.3938C433.03 27.9882 432.923 27.4641 432.923 26.8215V21.8792H434.536V26.5208C434.536 27.1086 434.655 27.5484 434.892 27.8401C435.133 28.1318 435.507 28.2776 436.013 28.2776C436.5 28.2776 436.888 28.1773 437.175 27.9768C437.462 27.7763 437.665 27.4801 437.783 27.0881C437.906 26.6962 437.968 26.2154 437.968 25.6458V21.8792H439.581ZM450.437 21.7356C451.284 21.7356 451.922 21.9543 452.351 22.3918C452.784 22.8293 453 23.5312 453 24.4973V29.4465H451.394V24.7844C451.394 24.2102 451.282 23.7773 451.059 23.4856C450.835 23.1939 450.496 23.0481 450.04 23.0481C449.402 23.0481 448.942 23.2532 448.659 23.6633C448.381 24.0689 448.242 24.6591 448.242 25.4338V29.4465H446.636V24.7844C446.636 24.4016 446.586 24.0826 446.485 23.8274C446.39 23.5676 446.242 23.3739 446.041 23.2463C445.84 23.1142 445.588 23.0481 445.282 23.0481C444.84 23.0481 444.487 23.1484 444.223 23.3489C443.963 23.5494 443.776 23.8456 443.662 24.2375C443.548 24.6249 443.491 25.1012 443.491 25.6663V29.4465H441.885V21.8792H443.136L443.361 22.8977H443.45C443.605 22.6334 443.797 22.4169 444.024 22.2483C444.257 22.0751 444.514 21.9475 444.797 21.8655C445.079 21.7789 445.373 21.7356 445.679 21.7356C446.244 21.7356 446.72 21.8359 447.107 22.0364C447.495 22.2323 447.784 22.5331 447.976 22.9387H448.099C448.336 22.5286 448.666 22.2255 449.09 22.0295C449.514 21.8336 449.963 21.7356 450.437 21.7356Z" fill="#009FC6"/> <rect x="197.5" y="0.5" width="272" height="208" rx="20.5" stroke="#009FC6"/> </svg>
